<svg xmlns="http://www.w3.org/2000/svg" width="760" height="760" viewBox="0 0 760 760" version="1.1"><path d="M 197 383 L 197 454 200 454 L 203 454 203 383 L 203 312 200 312 L 197 312 197 383 M 381.248 354.817 C 375.108 357.012, 372.729 358.945, 370.571 363.492 C 367.129 370.746, 369.974 378.758, 377.261 382.331 C 379.315 383.338, 384.709 384.841, 389.248 385.670 C 400.932 387.806, 404.500 389.178, 404.500 391.537 C 404.500 392.930, 403.351 393.871, 400.500 394.812 C 394.753 396.710, 388.383 395.537, 384.761 391.914 C 382.103 389.256, 381.237 389, 374.923 389 L 368 389 368 392.965 C 368 395.959, 368.747 397.781, 371.047 400.400 C 375.851 405.873, 381.463 407.500, 395.528 407.500 C 406.471 407.500, 408.005 407.269, 412.528 404.941 C 418.936 401.642, 422.001 397.162, 421.996 391.102 C 421.989 381.658, 416.256 377.241, 400.500 374.538 C 391.509 372.996, 385.986 371.315, 386.015 370.129 C 386.089 367.116, 391.976 364.651, 397.050 365.508 C 399.051 365.847, 402.159 367.466, 403.955 369.106 C 406.944 371.836, 407.743 372.065, 413.361 371.795 L 419.500 371.500 419.802 367.889 C 420.173 363.458, 416.743 358.937, 410.624 355.793 C 404.649 352.723, 388.598 352.189, 381.248 354.817 M 500.500 353.914 C 487.790 357.444, 481.044 366.112, 480.715 379.338 C 480.270 397.220, 489.625 406.747, 508.632 407.769 C 529.583 408.896, 541.222 399.139, 541.222 380.452 C 541.222 368.610, 536.952 361.078, 527.500 356.246 C 523.376 354.138, 520.836 353.637, 513 353.385 C 507.775 353.218, 502.150 353.456, 500.500 353.914 M 239.667 354.667 C 239.300 355.033, 239 366.685, 239 380.560 C 239 402.640, 239.197 405.862, 240.582 406.393 C 243.253 407.418, 267.280 407.065, 273.535 405.909 C 284.137 403.949, 291.264 398.558, 294.121 390.336 C 296.199 384.357, 295.769 373.270, 293.275 368.500 C 289.211 360.728, 283.121 356.712, 272.883 355.051 C 265.821 353.905, 240.719 353.615, 239.667 354.667 M 305.480 355.033 C 305.129 355.600, 304.810 364.042, 304.770 373.791 C 304.694 392.712, 305.201 395.163, 310.367 400.847 C 315.176 406.139, 319.601 407.500, 332 407.500 C 341.922 407.500, 344.062 407.199, 347.595 405.309 C 353.590 402.101, 357.617 397.015, 358.900 391.030 C 360.433 383.881, 360.358 356.758, 358.800 355.200 C 357.234 353.634, 345.766 353.634, 344.200 355.200 C 343.366 356.034, 343 361.326, 343 372.565 C 343 387.336, 342.824 388.955, 340.955 391.331 C 338.341 394.654, 333.122 396.149, 328.545 394.885 C 326.646 394.360, 324.171 392.761, 323.045 391.331 C 321.170 388.946, 321 387.340, 321 371.972 C 321 357.613, 320.774 355.127, 319.418 354.607 C 316.795 353.601, 306.164 353.925, 305.480 355.033 M 424.415 355.360 C 424.121 356.127, 424.020 358.947, 424.190 361.627 L 424.500 366.500 432.968 366.794 C 437.626 366.956, 441.719 367.546, 442.065 368.105 C 442.411 368.665, 442.501 376.992, 442.265 386.610 C 441.952 399.330, 442.164 404.492, 443.040 405.548 C 444.821 407.695, 457.561 407.587, 458.393 405.418 C 458.727 404.548, 459 395.566, 459 385.457 L 459 367.078 467.750 366.789 L 476.500 366.500 476.500 360.500 L 476.500 354.500 450.725 354.233 C 429.428 354.013, 424.857 354.208, 424.415 355.360 M 544 355.913 C 544 357.958, 562.132 400.980, 564.583 404.750 C 565.906 406.785, 566.839 407, 574.332 407 C 579.420 407, 583.250 406.518, 584.256 405.750 C 586.471 404.060, 606.336 357.318, 605.626 355.467 C 604.889 353.548, 590.755 353.360, 589.248 355.250 C 588.700 355.938, 585.382 364.035, 581.876 373.244 C 578.369 382.454, 575.091 389.855, 574.591 389.691 C 574.092 389.528, 570.786 381.993, 567.245 372.947 C 563.704 363.901, 560.346 355.938, 559.781 355.250 C 559.129 354.456, 556.066 354, 551.378 354 C 544.779 354, 544 354.202, 544 355.913 M 613.232 354.825 C 612.252 355.455, 612.025 361.396, 612.232 381.070 L 612.500 406.500 637.500 406.500 L 662.500 406.500 662.500 400.500 L 662.500 394.500 645.500 394 L 628.500 393.500 628.187 390.250 L 627.873 387 640.237 387 C 648.519 387, 652.996 386.604, 653.800 385.800 C 655.132 384.468, 655.406 377.187, 654.196 375.282 C 653.672 374.459, 649.390 373.974, 640.961 373.782 L 628.500 373.500 628.500 370.500 L 628.500 367.500 645.500 367 L 662.500 366.500 662.500 360.500 L 662.500 354.500 638.500 354.255 C 625.300 354.121, 613.930 354.377, 613.232 354.825 M 671.451 355.268 C 671.183 355.965, 671.085 367.778, 671.232 381.518 L 671.500 406.500 679 406.500 L 686.500 406.500 686.789 397.750 L 687.078 389 693.988 389 C 700.617 389, 700.997 389.132, 703.337 392.250 C 704.679 394.038, 706.931 397.806, 708.342 400.625 C 709.753 403.444, 711.640 406.032, 712.535 406.375 C 715.207 407.400, 727.831 407.083, 728.517 405.973 C 729.305 404.698, 721.702 390.527, 718.132 386.618 C 716.017 384.303, 715.795 383.633, 717 383.208 C 717.825 382.917, 719.962 381.221, 721.750 379.439 C 724.386 376.812, 725 375.407, 725 372.001 C 725 363.217, 720.063 357.695, 710.118 355.354 C 702.468 353.553, 672.135 353.486, 671.451 355.268 M 506.094 366.274 C 499.867 368.515, 496.603 375.893, 498.092 384.358 C 499.042 389.757, 501.975 393.273, 506.839 394.845 C 512.612 396.711, 518.557 394.816, 521.720 390.102 C 526.120 383.544, 524.135 370.284, 518.285 367.153 C 515.034 365.413, 509.579 365.020, 506.094 366.274 M 255.492 367.160 C 255.187 367.955, 255.064 374.432, 255.219 381.553 L 255.500 394.500 262.763 394.436 C 268.387 394.386, 270.643 393.918, 272.763 392.364 C 276.157 389.876, 278.997 384.471, 278.997 380.500 C 278.997 376.610, 276.176 371.137, 272.957 368.780 C 269.523 366.266, 256.306 365.040, 255.492 367.160 M 687.402 367.395 C 687.108 368.162, 687.009 370.524, 687.183 372.645 L 687.500 376.500 694.177 376.794 C 702.857 377.176, 708 375.207, 708 371.500 C 708 369.476, 707.230 368.576, 704.532 367.449 C 699.935 365.528, 688.133 365.491, 687.402 367.395" stroke="none" fill="#040404" fill-rule="evenodd"/><path d="M 48 334.190 C 43.875 341.444, 40.101 348.177, 39.614 349.152 C 38.940 350.501, 40.725 354.401, 47.081 365.463 L 55.435 380 72.687 380 L 89.940 380 98.511 365.510 C 106.166 352.568, 106.955 350.779, 105.896 348.760 C 105.243 347.517, 101.354 340.762, 97.253 333.750 L 89.796 321 72.648 321 L 55.500 321.001 48 334.190 M 105.250 368.411 C 100.713 376.318, 97 383.356, 97 384.052 C 97 384.748, 100.713 391.769, 105.250 399.654 L 113.500 413.991 130.604 413.996 L 147.707 414 156.341 399.048 L 164.974 384.097 156.364 369.048 L 147.754 354 130.627 354.018 L 113.500 354.036 105.250 368.411 M 304.349 364 C 304.349 368.675, 304.522 370.587, 304.732 368.250 C 304.943 365.913, 304.943 362.087, 304.732 359.750 C 304.522 357.413, 304.349 359.325, 304.349 364 M 47.250 400.394 C 42.712 408.310, 39 415.238, 39 415.790 C 39 416.341, 42.724 423.252, 47.275 431.146 L 55.550 445.500 72.619 445.773 L 89.689 446.046 98.345 431.154 C 103.105 422.963, 107 416.028, 107 415.742 C 107 415.456, 103.216 408.760, 98.592 400.861 L 90.184 386.500 72.842 386.250 L 55.500 386 47.250 400.394 M 687.349 397 C 687.349 401.675, 687.522 403.587, 687.732 401.250 C 687.943 398.913, 687.943 395.087, 687.732 392.750 C 687.522 390.413, 687.349 392.325, 687.349 397" stroke="none" fill="#349cdc" fill-rule="evenodd"/></svg>