<svg xmlns="http://www.w3.org/2000/svg" width="760" height="760" viewBox="0 0 760 760" version="1.1"><path d="M 53.794 323.250 C 53.003 324.488, 49.265 331.075, 45.487 337.888 L 38.617 350.276 42.313 357.388 C 44.346 361.300, 48.048 367.988, 50.539 372.250 L 55.068 380 72.784 379.990 L 90.500 379.979 98.126 366.740 C 102.320 359.458, 106.028 352.686, 106.367 351.691 C 106.776 350.489, 104.219 345.050, 98.741 335.470 L 90.500 321.058 72.865 321.029 C 55.654 321.001, 55.195 321.054, 53.794 323.250 M 109.176 360.727 C 107.009 364.452, 103.271 371.212, 100.868 375.750 L 96.500 384 100.868 392.250 C 103.271 396.788, 107.009 403.548, 109.176 407.273 L 113.115 414.046 130.803 413.773 L 148.491 413.500 156.663 399.500 C 161.158 391.800, 164.836 384.825, 164.836 384 C 164.836 383.175, 161.158 376.200, 156.663 368.500 L 148.491 354.500 130.803 354.227 L 113.115 353.954 109.176 360.727 M 51.177 392.750 C 43.919 405.276, 39 414.663, 39 415.987 C 39 416.712, 42.675 423.771, 47.167 431.675 L 55.335 446.045 72.913 445.772 L 90.491 445.500 98.663 431.500 C 103.158 423.800, 106.873 416.866, 106.918 416.091 C 106.963 415.317, 103.287 408.231, 98.750 400.346 L 90.500 386.009 72.794 386.004 L 55.088 386 51.177 392.750" stroke="none" fill="#349cdc" fill-rule="evenodd"/><path d="M 197 383 L 197 454 200 454 L 203 454 203 383 L 203 312 200 312 L 197 312 197 383 M 380.759 354.371 C 375.033 356.494, 372.454 358.523, 370.649 362.326 C 366.985 370.048, 369.644 379.180, 376.506 382.436 C 378.417 383.342, 384.143 384.993, 389.232 386.104 C 402.959 389.100, 406 391.091, 400.888 393.735 C 395.937 396.297, 387.491 394.706, 384.055 390.566 C 383.090 389.404, 380.853 389, 375.378 389 L 368 389 368 393.096 C 368 402.739, 375.491 407.143, 393 407.793 C 407.580 408.335, 412.064 407.199, 417.733 401.530 C 421.816 397.447, 422 397.002, 422 391.208 C 422 381.044, 417.732 377.620, 400.500 373.959 C 385.521 370.777, 385.026 370.496, 389.223 367.557 C 392.609 365.185, 397.103 365.679, 402.339 369 C 406.338 371.536, 408.069 372, 413.535 372 L 420 372 420 367.635 C 420 362.351, 417.541 358.853, 411.655 355.763 C 408.221 353.960, 405.503 353.529, 396 353.283 C 388.003 353.075, 383.360 353.407, 380.759 354.371 M 497.500 354.227 C 484.478 358.869, 477.724 372.721, 480.937 388.198 C 483.609 401.070, 492.330 407.116, 509.247 407.824 C 530.945 408.733, 541.444 399.824, 541.444 380.500 C 541.444 366.418, 535.152 357.360, 523.035 353.993 C 518.401 352.706, 501.329 352.862, 497.500 354.227 M 592.055 353.882 C 588.645 354.493, 588.542 354.668, 582.270 370.485 C 578.783 379.277, 575.558 386.842, 575.104 387.296 C 574.649 387.751, 573.089 385.283, 571.637 381.811 C 570.185 378.340, 567.041 370.775, 564.650 365 L 560.304 354.500 552.152 354.210 C 544.400 353.933, 544 354.024, 544 356.058 C 544 358.442, 551.019 376.219, 559.179 394.500 L 564.534 406.500 574.485 406.500 L 584.436 406.500 586.705 402.500 C 592.136 392.926, 607.088 355.657, 605.910 354.629 C 604.994 353.830, 595.271 353.305, 592.055 353.882 M 239.233 380.156 L 239.500 406.500 254.961 406.777 C 263.504 406.930, 272.783 406.564, 275.701 405.958 C 282.779 404.489, 289.868 399.585, 292.987 394 C 295.154 390.120, 295.499 388.260, 295.493 380.500 C 295.482 367.490, 292.017 361.630, 281.488 356.818 C 276.980 354.759, 274.693 354.504, 257.733 354.176 L 238.966 353.812 239.233 380.156 M 304.533 368.710 C 303.677 386.890, 304.766 394.884, 308.788 399.934 C 313.336 405.643, 317.954 407.380, 329.802 407.835 C 342.964 408.341, 348.070 406.983, 353.526 401.526 C 359.332 395.721, 360.141 391.841, 359.792 371.500 L 359.500 354.500 351.500 354.500 L 343.500 354.500 342.500 372.103 C 341.809 384.274, 341.078 390.212, 340.131 391.348 C 337.837 394.101, 331.603 395.492, 328.085 394.035 C 322.870 391.875, 322.566 390.862, 321.500 372.101 L 320.500 354.500 312.865 354.210 L 305.230 353.920 304.533 368.710 M 424 360.500 L 424 367 430.250 367.200 C 433.688 367.309, 437.738 367.356, 439.250 367.302 L 442 367.205 442 386.972 L 442 406.740 446.612 407.260 C 449.149 407.546, 452.974 407.545, 455.112 407.258 L 459 406.737 459 387.475 C 459 370.834, 459.215 368.131, 460.582 367.607 C 461.452 367.273, 465.502 367, 469.582 367 L 477 367 477 360.500 L 477 354 450.500 354 L 424 354 424 360.500 M 612 380.500 L 612 407 637.500 407 L 663 407 663 400.628 L 663 394.256 646.100 393.533 L 629.199 392.811 628.777 389.933 L 628.355 387.056 641.427 386.778 L 654.500 386.500 654.500 380.500 L 654.500 374.500 650 373.824 C 647.525 373.452, 641.788 373.115, 637.250 373.074 C 629.228 373.002, 629 372.934, 629 370.599 L 629 368.198 646 367.471 L 663 366.744 663 360.372 L 663 354 637.500 354 L 612 354 612 380.500 M 671 380.411 L 671 407 679 407 L 687 407 687.015 399.250 C 687.036 388.939, 687.306 388.607, 694.973 389.497 L 701.189 390.218 705.011 396.359 C 712.084 407.722, 711.031 407, 720.547 407 C 727.476 407, 729 406.723, 729 405.467 C 729 403.339, 724.419 394.419, 720.493 388.901 L 717.220 384.302 721.110 380.639 C 724.784 377.179, 725 376.645, 725 371.023 C 725 365.773, 724.628 364.646, 721.855 361.488 C 716.388 355.262, 713.897 354.670, 691.250 354.222 L 671 353.822 671 380.411 M 504.763 367.565 C 499.041 370.670, 496.666 381.791, 500.268 388.615 C 503.212 394.193, 511.184 396.508, 517.033 393.483 C 525.378 389.168, 525.319 371.505, 516.945 367.267 C 513.668 365.608, 508.119 365.744, 504.763 367.565 M 256 380.500 L 256 394 262.050 394 C 269.261 394, 273.057 392.262, 275.903 387.656 C 278.603 383.289, 278.581 377.676, 275.848 373.253 C 273.184 368.944, 268.734 367, 261.532 367 L 256 367 256 380.500 M 688 371.500 L 688 376 694.953 376 C 703.191 376, 707 374.577, 707 371.500 C 707 368.423, 703.191 367, 694.953 367 L 688 367 688 371.500" stroke="none" fill="#fcfcfc" fill-rule="evenodd"/></svg>