<svg xmlns="http://www.w3.org/2000/svg" width="695" height="147" viewBox="0 0 695 147" version="1.1"><path d="M 160 73 L 160 144 163 144 L 166 144 166 73 L 166 2 163 2 L 160 2 160 73 M 344 44.647 C 335.574 47.552, 331.487 53.307, 332.245 61.198 C 333.047 69.541, 337.384 72.765, 352.155 75.999 C 357.295 77.124, 362.738 78.539, 364.250 79.144 C 370.022 81.450, 365.982 85, 357.585 85 C 354.481 85, 352.089 84.179, 348.900 82.018 C 345.104 79.446, 343.574 79.034, 337.750 79.018 L 331 79 331 82.997 C 331 86.175, 331.731 87.803, 334.566 90.941 C 339.565 96.475, 343.256 97.485, 358.500 97.493 C 370.517 97.499, 371.837 97.311, 375.961 95 C 382.722 91.212, 385.269 86.816, 384.777 79.787 C 384.157 70.920, 379.875 67.624, 364.892 64.482 C 352.812 61.949, 350 61.008, 350 59.497 C 350 54.410, 363.532 55.117, 367.945 60.434 C 368.894 61.578, 371.100 62, 376.122 62 L 383 62 383 58.223 C 383 51.902, 378.510 46.951, 370.568 44.514 C 364.152 42.544, 349.891 42.616, 344 44.647 M 461.994 43.934 C 454.430 46.235, 447.269 52.800, 444.884 59.619 C 442.843 65.459, 443.260 77.574, 445.691 83 C 450.074 92.787, 457.523 97.045, 471.547 97.778 C 487.307 98.602, 497.581 93.672, 502.310 83.017 C 504.914 77.150, 505.016 64.388, 502.508 58.234 C 500.219 52.616, 493.037 46.385, 486.672 44.495 C 481.402 42.930, 466.415 42.589, 461.994 43.934 M 202.233 70.250 L 202.500 96.500 220.500 96.500 C 237.792 96.500, 238.716 96.398, 244 93.907 C 251.205 90.509, 255.697 85.758, 257.525 79.603 C 261.178 67.301, 257.682 55.545, 248.517 49.318 C 242.623 45.313, 235.034 44, 217.773 44 L 201.967 44 202.233 70.250 M 268.565 45.206 C 267.531 48.501, 267.076 74.136, 267.958 79.408 C 269.163 86.609, 272.608 91.850, 278.207 94.996 C 281.602 96.904, 284.275 97.428, 292.443 97.786 C 298.631 98.057, 304.231 97.758, 306.998 97.008 C 312.807 95.434, 320.331 88.099, 321.882 82.500 C 323.431 76.904, 323.365 46.765, 321.800 45.200 C 320.184 43.584, 308.544 43.624, 307.248 45.250 C 306.700 45.938, 306.028 53.857, 305.754 62.849 C 305.265 78.903, 305.208 79.246, 302.605 81.849 C 300.451 84.004, 299.027 84.500, 295 84.500 C 290.974 84.500, 289.549 84.004, 287.395 81.850 C 284.789 79.243, 284.734 78.911, 284.122 61.850 L 283.500 44.500 276.236 44.206 C 270.960 43.992, 268.860 44.266, 268.565 45.206 M 387.667 44.667 C 387.300 45.033, 387 47.958, 387 51.167 L 387 57 392.250 57.011 C 395.137 57.017, 399.188 57.301, 401.250 57.642 L 405 58.262 405 76.508 C 405 90.990, 405.291 94.997, 406.410 95.925 C 407.272 96.641, 410.478 96.980, 414.660 96.798 L 421.500 96.500 421.771 76.750 L 422.042 57 431.021 57 L 440 57 440 50.500 L 440 44 414.167 44 C 399.958 44, 388.033 44.300, 387.667 44.667 M 507 45.856 C 507 49.190, 525.082 92.187, 527.773 95.250 C 529.001 96.648, 530.950 97, 537.464 97 C 542.439 97, 546.262 96.513, 547.271 95.750 C 550.272 93.480, 569.554 47.886, 568.583 45.355 C 568.209 44.381, 565.949 44, 560.554 44 C 551.561 44, 552.083 43.435, 545.648 60.137 C 543.181 66.537, 540.304 73.451, 539.252 75.500 L 537.341 79.226 531.078 63.863 C 522.483 42.780, 523.503 44, 514.477 44 C 507.860 44, 507 44.213, 507 45.856 M 575.667 44.667 C 575.300 45.033, 575 56.958, 575 71.167 L 575 97 600.500 97 L 626 97 626 90.655 L 626 84.310 609.304 83.626 C 600.121 83.249, 592.535 82.842, 592.445 82.721 C 592.355 82.599, 591.984 81.263, 591.622 79.750 L 590.962 77 603.281 77 C 611.529 77, 615.997 76.603, 616.800 75.800 C 618.160 74.440, 618.447 65.394, 617.155 64.596 C 616.691 64.309, 610.841 63.765, 604.155 63.387 C 592.508 62.729, 592 62.608, 592 60.501 C 592 58.430, 592.568 58.264, 601.750 57.656 C 607.112 57.301, 614.763 57.008, 618.750 57.005 L 626 57 626 50.500 L 626 44 601.167 44 C 587.508 44, 576.033 44.300, 575.667 44.667 M 634.750 44.580 C 634.337 44.994, 634 56.958, 634 71.167 L 634 97 642 97 L 650 97 650 88 L 650 79 655.250 79.015 C 658.138 79.023, 661.610 79.591, 662.968 80.278 C 664.325 80.965, 667.491 84.896, 670.004 89.013 L 674.574 96.500 682.442 96.795 C 686.770 96.957, 690.729 96.671, 691.240 96.160 C 692.300 95.100, 687.843 85.539, 683.028 78.540 L 679.939 74.050 683.969 70.409 C 687.700 67.038, 688 66.378, 688 61.532 C 688 54.709, 685.127 50.315, 678.499 47 C 673.786 44.643, 672.415 44.481, 654.500 44.163 C 644.050 43.978, 635.163 44.166, 634.750 44.580 M 221.250 56.808 C 219.044 57.133, 219 57.403, 219 70.679 L 219 84.219 226.412 83.844 C 234.964 83.412, 237.158 82.031, 240.240 75.142 C 242.082 71.024, 242.100 70.550, 240.569 66.543 C 238.234 60.426, 235.180 57.981, 228.860 57.167 C 225.912 56.787, 222.488 56.625, 221.250 56.808 M 468.388 56.926 C 462.645 59.394, 459.693 68.493, 462.142 76.180 C 465.875 87.893, 482.143 87.838, 485.882 76.100 C 487.668 70.494, 486.051 62.336, 482.491 58.992 C 479.816 56.478, 472.070 55.343, 468.388 56.926 M 653.250 56.669 C 651.326 57.071, 651 57.781, 651 61.570 L 651 66 659 66 C 665.697 66, 667.330 65.670, 669.023 63.977 C 671.447 61.553, 670.372 58.545, 666.776 57.687 C 662.751 56.726, 655.566 56.186, 653.250 56.669" stroke="none" fill="#040404" fill-rule="evenodd"/><path d="M 16.794 13.250 C 16.003 14.488, 12.265 21.075, 8.487 27.888 L 1.617 40.276 5.313 47.388 C 7.346 51.300, 11.048 57.987, 13.539 62.250 L 18.068 70 35.784 69.990 L 53.500 69.979 61.126 56.740 C 65.320 49.458, 69.028 42.686, 69.367 41.691 C 69.776 40.489, 67.219 35.050, 61.741 25.470 L 53.500 11.058 35.865 11.029 C 18.654 11.001, 18.195 11.054, 16.794 13.250 M 72.176 50.727 C 70.009 54.452, 66.271 61.212, 63.868 65.750 L 59.500 74 63.868 82.250 C 66.271 86.787, 70.009 93.548, 72.176 97.273 L 76.115 104.046 93.803 103.773 L 111.491 103.500 119.663 89.500 C 124.158 81.800, 127.836 74.825, 127.836 74 C 127.836 73.175, 124.158 66.200, 119.663 58.500 L 111.491 44.500 93.803 44.227 L 76.115 43.954 72.176 50.727 M 14.177 82.750 C 6.919 95.276, 2 104.663, 2 105.987 C 2 106.712, 5.675 113.771, 10.167 121.675 L 18.335 136.045 35.913 135.772 L 53.491 135.500 61.663 121.500 C 66.158 113.800, 69.873 106.866, 69.918 106.091 C 69.963 105.317, 66.287 98.231, 61.750 90.346 L 53.500 76.009 35.794 76.004 L 18.088 76 14.177 82.750" stroke="none" fill="#349cdc" fill-rule="evenodd"/></svg>