<svg xmlns="http://www.w3.org/2000/svg" width="694" height="146" viewBox="0 0 694 146" version="1.1"><path d="M 15.794 13.250 C 15.003 14.488, 11.265 21.075, 7.487 27.888 L 0.617 40.276 4.313 47.388 C 6.346 51.300, 10.048 57.987, 12.539 62.250 L 17.068 70 34.784 69.990 L 52.500 69.979 60.126 56.740 C 64.320 49.458, 68.028 42.686, 68.367 41.691 C 68.776 40.489, 66.219 35.050, 60.741 25.470 L 52.500 11.058 34.865 11.029 C 17.654 11.001, 17.195 11.054, 15.794 13.250 M 71.176 50.727 C 69.009 54.452, 65.271 61.212, 62.868 65.750 L 58.500 74 62.868 82.250 C 65.271 86.787, 69.009 93.548, 71.176 97.273 L 75.115 104.046 92.803 103.773 L 110.491 103.500 118.663 89.500 C 123.158 81.800, 126.836 74.825, 126.836 74 C 126.836 73.175, 123.158 66.200, 118.663 58.500 L 110.491 44.500 92.803 44.227 L 75.115 43.954 71.176 50.727 M 13.177 82.750 C 5.919 95.276, 1 104.663, 1 105.987 C 1 106.712, 4.675 113.771, 9.167 121.675 L 17.335 136.045 34.913 135.772 L 52.491 135.500 60.663 121.500 C 65.158 113.800, 68.873 106.866, 68.918 106.091 C 68.963 105.317, 65.287 98.231, 60.750 90.346 L 52.500 76.009 34.794 76.004 L 17.088 76 13.177 82.750" stroke="none" fill="#349cdc" fill-rule="evenodd"/><path d="M 159 73 L 159 144 162 144 L 165 144 165 73 L 165 2 162 2 L 159 2 159 73 M 342.759 44.371 C 337.033 46.494, 334.454 48.523, 332.649 52.326 C 328.985 60.048, 331.644 69.180, 338.506 72.436 C 340.417 73.342, 346.143 74.993, 351.232 76.104 C 364.959 79.100, 368 81.091, 362.888 83.735 C 357.937 86.297, 349.491 84.706, 346.055 80.566 C 345.090 79.404, 342.853 79, 337.378 79 L 330 79 330 83.096 C 330 92.739, 337.491 97.143, 355 97.793 C 369.580 98.335, 374.064 97.199, 379.733 91.530 C 383.816 87.447, 384 87.002, 384 81.208 C 384 71.044, 379.732 67.620, 362.500 63.959 C 347.521 60.777, 347.026 60.496, 351.223 57.557 C 354.609 55.185, 359.103 55.679, 364.339 59 C 368.338 61.536, 370.069 62, 375.535 62 L 382 62 382 57.635 C 382 52.351, 379.541 48.853, 373.655 45.763 C 370.221 43.960, 367.503 43.529, 358 43.283 C 350.003 43.075, 345.360 43.407, 342.759 44.371 M 459.500 44.227 C 446.478 48.869, 439.724 62.721, 442.937 78.198 C 445.609 91.070, 454.330 97.116, 471.247 97.824 C 492.945 98.733, 503.444 89.824, 503.444 70.500 C 503.444 56.418, 497.152 47.360, 485.035 43.993 C 480.401 42.706, 463.329 42.862, 459.500 44.227 M 554.055 43.882 C 550.645 44.493, 550.542 44.668, 544.270 60.485 C 540.783 69.277, 537.558 76.842, 537.104 77.296 C 536.649 77.751, 535.089 75.283, 533.637 71.811 C 532.185 68.340, 529.041 60.775, 526.650 55 L 522.304 44.500 514.152 44.210 C 506.400 43.933, 506 44.024, 506 46.058 C 506 48.442, 513.019 66.219, 521.179 84.500 L 526.534 96.500 536.485 96.500 L 546.436 96.500 548.705 92.500 C 554.136 82.926, 569.088 45.657, 567.910 44.629 C 566.994 43.830, 557.271 43.305, 554.055 43.882 M 201.233 70.156 L 201.500 96.500 216.961 96.777 C 225.504 96.930, 234.783 96.564, 237.701 95.958 C 244.779 94.489, 251.868 89.585, 254.987 84 C 257.154 80.120, 257.499 78.260, 257.493 70.500 C 257.482 57.490, 254.017 51.630, 243.488 46.818 C 238.980 44.759, 236.693 44.504, 219.733 44.176 L 200.966 43.812 201.233 70.156 M 266.533 58.710 C 265.677 76.890, 266.766 84.884, 270.788 89.934 C 275.336 95.643, 279.954 97.380, 291.802 97.835 C 304.964 98.341, 310.070 96.983, 315.526 91.526 C 321.332 85.721, 322.141 81.841, 321.792 61.500 L 321.500 44.500 313.500 44.500 L 305.500 44.500 304.500 62.103 C 303.809 74.274, 303.078 80.212, 302.131 81.348 C 299.837 84.101, 293.603 85.492, 290.085 84.035 C 284.870 81.875, 284.566 80.862, 283.500 62.101 L 282.500 44.500 274.865 44.210 L 267.230 43.920 266.533 58.710 M 386 50.500 L 386 57 392.250 57.200 C 395.688 57.309, 399.738 57.356, 401.250 57.302 L 404 57.205 404 76.972 L 404 96.740 408.612 97.260 C 411.149 97.546, 414.974 97.545, 417.112 97.258 L 421 96.737 421 77.475 C 421 60.834, 421.215 58.131, 422.582 57.607 C 423.452 57.273, 427.502 57, 431.582 57 L 439 57 439 50.500 L 439 44 412.500 44 L 386 44 386 50.500 M 574 70.500 L 574 97 599.500 97 L 625 97 625 90.628 L 625 84.256 608.100 83.533 L 591.199 82.811 590.777 79.933 L 590.355 77.056 603.427 76.778 L 616.500 76.500 616.500 70.500 L 616.500 64.500 612 63.824 C 609.525 63.452, 603.788 63.115, 599.250 63.074 C 591.228 63.002, 591 62.934, 591 60.599 L 591 58.198 608 57.471 L 625 56.744 625 50.372 L 625 44 599.500 44 L 574 44 574 70.500 M 633 70.411 L 633 97 641 97 L 649 97 649.015 89.250 C 649.036 78.939, 649.306 78.607, 656.973 79.497 L 663.189 80.218 667.011 86.359 C 674.084 97.722, 673.031 97, 682.547 97 C 689.476 97, 691 96.723, 691 95.467 C 691 93.339, 686.419 84.419, 682.493 78.901 L 679.220 74.302 683.110 70.639 C 686.784 67.179, 687 66.645, 687 61.023 C 687 55.773, 686.628 54.646, 683.855 51.488 C 678.388 45.262, 675.897 44.670, 653.250 44.222 L 633 43.822 633 70.411 M 466.763 57.565 C 461.041 60.670, 458.666 71.791, 462.268 78.615 C 465.212 84.193, 473.184 86.508, 479.033 83.483 C 487.378 79.168, 487.319 61.505, 478.945 57.267 C 475.668 55.608, 470.119 55.744, 466.763 57.565 M 218 70.500 L 218 84 224.050 84 C 231.261 84, 235.057 82.262, 237.903 77.656 C 240.603 73.289, 240.581 67.676, 237.848 63.253 C 235.184 58.944, 230.734 57, 223.532 57 L 218 57 218 70.500 M 650 61.500 L 650 66 656.953 66 C 665.191 66, 669 64.577, 669 61.500 C 669 58.423, 665.191 57, 656.953 57 L 650 57 650 61.500" stroke="none" fill="#fcfcfc" fill-rule="evenodd"/></svg>